<svg height="300" width="300" x="0" xmlns="http://www.w3.org/2000/svg" y="0">
<rect fill="white" height="300" width="300" x="0" y="0"/>
<line stroke="hsl(200, 100%, 100%" stroke-linecap="round" stroke-width="2" x1="90" x2="88.89545454545454" y1="30" y2="30.276136363636365"/>
<line stroke="hsl(200, 100%, 99%" stroke-linecap="round" stroke-width="2" x1="88.89545454545454" x2="86.06078925619835" y1="30.276136363636365" y2="30.984802685950413"/>
<line stroke="hsl(200, 100%, 98%" stroke-linecap="round" stroke-width="2" x1="86.06078925619835" x2="81.22303626220886" y1="30.984802685950413" y2="32.194240934447784"/>
<line stroke="hsl(200, 100%, 96%" stroke-linecap="round" stroke-width="2" x1="81.22303626220886" x2="74.35499622129294" y1="32.194240934447784" y2="33.911250944676766"/>
<line stroke="hsl(200, 100%, 94%" stroke-linecap="round" stroke-width="2" x1="74.35499622129294" x2="67.24558269153881" y1="33.911250944676766" y2="39.41644523620621"/>
<line stroke="hsl(200, 100%, 92%" stroke-linecap="round" stroke-width="2" x1="67.24558269153881" x2="61.057474216119225" y1="39.41644523620621" y2="50.53046770630077"/>
<line stroke="hsl(200, 100%, 79%" stroke-linecap="round" stroke-width="2" x1="61.057474216119225" x2="56.466943508663725" y1="50.53046770630077" y2="68.00551673787916"/>
<line stroke="hsl(200, 100%, 66%" stroke-linecap="round" stroke-width="2" x1="56.466943508663725" x2="53.78916528843606" y1="68.00551673787916" y2="91.85459643102729"/>
<line stroke="hsl(200, 100%, 58%" stroke-linecap="round" stroke-width="2" x1="53.78916528843606" x2="53.36113960170552" y1="91.85459643102729" y2="118.57916897017553"/>
<line stroke="hsl(200, 100%, 52%" stroke-linecap="round" stroke-width="2" x1="53.36113960170552" x2="55.23288288243602" y1="118.57916897017553" y2="145.72842931651752"/>
<line stroke="hsl(200, 100%, 47%" stroke-linecap="round" stroke-width="2" x1="55.23288288243602" x2="59.267059024396886" y1="145.72842931651752" y2="171.7025897794146"/>
<line stroke="hsl(200, 100%, 43%" stroke-linecap="round" stroke-width="2" x1="59.267059024396886" x2="65.2165392270917" y1="171.7025897794146" y2="195.56431631918457"/>
<line stroke="hsl(200, 100%, 39%" stroke-linecap="round" stroke-width="2" x1="65.2165392270917" x2="72.09178412282147" y1="195.56431631918457" y2="215.21244892113378"/>
<line stroke="hsl(200, 100%, 35%" stroke-linecap="round" stroke-width="2" x1="72.09178412282147" x2="79.19131857068075" y1="215.21244892113378" y2="229.6125189112796"/>
<line stroke="hsl(200, 100%, 32%" stroke-linecap="round" stroke-width="2" x1="79.19131857068075" x2="86.04968261346964" y1="229.6125189112796" y2="238.48891458514234"/>
<line stroke="hsl(200, 100%, 29%" stroke-linecap="round" stroke-width="2" x1="86.04968261346964" x2="92.38674079022633" y1="238.48891458514234" y2="242.07198774241763"/>
<line stroke="hsl(200, 100%, 27%" stroke-linecap="round" stroke-width="2" x1="92.38674079022633" x2="98.06159347425212" y1="242.07198774241763" y2="240.8989445565867"/>
<line stroke="hsl(200, 100%, 28%" stroke-linecap="round" stroke-width="2" x1="98.06159347425212" x2="103.0328273089246" y1="240.8989445565867" y2="235.66382009121537"/>
<line stroke="hsl(200, 100%, 29%" stroke-linecap="round" stroke-width="2" x1="103.0328273089246" x2="107.32574967945781" y1="235.66382009121537" y2="227.1099136812064"/>
<line stroke="hsl(200, 100%, 30%" stroke-linecap="round" stroke-width="2" x1="107.32574967945781" x2="111.00650570202082" y1="227.1099136812064" y2="215.95731993500272"/>
<line stroke="hsl(200, 100%, 31%" stroke-linecap="round" stroke-width="2" x1="111.00650570202082" x2="115.12898322749416" y1="215.95731993500272" y2="201.7537118331276"/>
<line stroke="hsl(200, 100%, 34%" stroke-linecap="round" stroke-width="2" x1="115.12898322749416" x2="120.33514371522706" y1="201.7537118331276" y2="184.43426568567"/>
<line stroke="hsl(200, 100%, 37%" stroke-linecap="round" stroke-width="2" x1="120.33514371522706" x2="126.95604402652756" y1="184.43426568567" y2="164.18693331444328"/>
<line stroke="hsl(200, 100%, 41%" stroke-linecap="round" stroke-width="2" x1="126.95604402652756" x2="135.0993842565338" y1="164.18693331444328" y2="141.3476027800673"/>
<line stroke="hsl(200, 100%, 46%" stroke-linecap="round" stroke-width="2" x1="135.0993842565338" x2="144.169712799393" y1="141.3476027800673" y2="119.35960776062535"/>
<line stroke="hsl(200, 100%, 51%" stroke-linecap="round" stroke-width="2" x1="144.169712799393" x2="153.7176805788676" y1="119.35960776062535" y2="100.36399255853645"/>
<line stroke="hsl(200, 100%, 56%" stroke-linecap="round" stroke-width="2" x1="153.7176805788676" x2="163.4205325696511" y1="100.36399255853645" y2="85.51067755898006"/>
<line stroke="hsl(200, 100%, 61%" stroke-linecap="round" stroke-width="2" x1="163.4205325696511" x2="173.06030044544187" y1="85.51067755898006" y2="75.23058788446635"/>
<line stroke="hsl(200, 100%, 72%" stroke-linecap="round" stroke-width="2" x1="173.06030044544187" x2="182.5021297622381" y1="75.23058788446635" y2="69.46275993037597"/>
<line stroke="hsl(200, 100%, 83%" stroke-linecap="round" stroke-width="2" x1="182.5021297622381" x2="191.67428915158655" y1="69.46275993037597" y2="67.83591044488497"/>
<line stroke="hsl(200, 100%, 83%" stroke-linecap="round" stroke-width="2" x1="191.67428915158655" x2="200.55072805051637" y1="67.83591044488497" y2="69.80749155050194"/>
<line stroke="hsl(200, 100%, 83%" stroke-linecap="round" stroke-width="2" x1="200.55072805051637" x2="209.13654988029344" y1="69.80749155050194" y2="74.76529726210529"/>
<line stroke="hsl(200, 100%, 83%" stroke-linecap="round" stroke-width="2" x1="209.13654988029344" x2="216.35187536016554" y1="74.76529726210529" y2="81.8214846645946"/>
<line stroke="hsl(200, 100%, 83%" stroke-linecap="round" stroke-width="2" x1="216.35187536016554" x2="221.6065001180351" y1="81.8214846645946" y2="90.25331709506757"/>
<line stroke="hsl(200, 100%, 83%" stroke-linecap="round" stroke-width="2" x1="221.6065001180351" x2="224.6670722271072" y1="90.25331709506757" y2="99.49694559175168"/>
<line stroke="hsl(200, 100%, 83%" stroke-linecap="round" stroke-width="2" x1="224.6670722271072" x2="225.5458085129173" y1="99.49694559175168" y2="109.13172910878235"/>
<line stroke="hsl(200, 100%, 66%" stroke-linecap="round" stroke-width="2" x1="225.5458085129173" x2="223.85891747261184" y1="109.13172910878235" y2="119.41192687076256"/>
<line stroke="hsl(200, 100%, 47%" stroke-linecap="round" stroke-width="2" x1="223.85891747261184" x2="219.54969601110582" y1="119.41192687076256" y2="130.452738823401"/>
<line stroke="hsl(200, 100%, 36%" stroke-linecap="round" stroke-width="2" x1="219.54969601110582" x2="212.77495302401508" y1="130.452738823401" y2="142.271884068821"/>
<line stroke="hsl(200, 100%, 30%" stroke-linecap="round" stroke-width="2" x1="212.77495302401508" x2="203.81659824414498" y1="142.271884068821" y2="154.8233891990039"/>
<line stroke="hsl(200, 100%, 28%" stroke-linecap="round" stroke-width="2" x1="203.81659824414498" x2="195.22493804159564" y1="154.8233891990039" y2="167.47163018675795"/>
<line stroke="hsl(200, 100%, 29%" stroke-linecap="round" stroke-width="2" x1="195.22493804159564" x2="188.605166437992" y1="167.47163018675795" y2="179.80268437789564"/>
<line stroke="hsl(200, 100%, 29%" stroke-linecap="round" stroke-width="2" x1="188.605166437992" x2="184.83940490125173" y1="179.80268437789564" y2="191.5749977560332"/>
<line stroke="hsl(200, 100%, 30%" stroke-linecap="round" stroke-width="2" x1="184.83940490125173" x2="184.2820522477367" y1="191.5749977560332" y2="202.67511939236977"/>
<line stroke="hsl(200, 100%, 31%" stroke-linecap="round" stroke-width="2" x1="184.2820522477367" x2="186.64753179306283" y1="202.67511939236977" y2="212.52766572073247"/>
<line stroke="hsl(200, 100%, 31%" stroke-linecap="round" stroke-width="2" x1="186.64753179306283" x2="191.53784772458235" y1="212.52766572073247" y2="220.85625816781246"/>
<line stroke="hsl(200, 100%, 31%" stroke-linecap="round" stroke-width="2" x1="191.53784772458235" x2="198.5123629519447" y1="220.85625816781246" y2="227.5962328688593"/>
<line stroke="hsl(200, 100%, 31%" stroke-linecap="round" stroke-width="2" x1="198.5123629519447" x2="207.13559688008615" y1="227.5962328688593" y2="232.82318498445872"/>
<line stroke="hsl(200, 100%, 32%" stroke-linecap="round" stroke-width="2" x1="207.13559688008615" x2="216.4551635511085" y1="232.82318498445872" y2="237.2491816259504"/>
<line stroke="hsl(200, 100%, 32%" stroke-linecap="round" stroke-width="2" x1="216.4551635511085" x2="225.81026054089028" y1="237.2491816259504" y2="241.38892519313964"/>
<line stroke="hsl(200, 100%, 33%" stroke-linecap="round" stroke-width="2" x1="225.81026054089028" x2="234.77535797452143" y1="241.38892519313964" y2="245.5929038573732"/>
<line stroke="hsl(200, 100%, 34%" stroke-linecap="round" stroke-width="2" x1="234.77535797452143" x2="243.10683488119423" y1="245.5929038573732" y2="250.08070000934882"/>
<line stroke="hsl(200, 100%, 37%" stroke-linecap="round" stroke-width="2" x1="243.10683488119423" x2="251.10598601159478" y1="250.08070000934882" y2="254.88340956436144"/>
<line stroke="hsl(200, 100%, 41%" stroke-linecap="round" stroke-width="2" x1="251.10598601159478" x2="257.6231143251447" y1="254.88340956436144" y2="259.13927079151796"/>
<line stroke="hsl(200, 100%, 43%" stroke-linecap="round" stroke-width="2" x1="257.6231143251447" x2="262.6585627382615" y1="259.13927079151796" y2="262.68012654676477"/>
<line stroke="hsl(200, 100%, 46%" stroke-linecap="round" stroke-width="2" x1="262.6585627382615" x2="266.34723517356235" y1="262.68012654676477" y2="265.4700830411161"/>
<line stroke="hsl(200, 100%, 48%" stroke-linecap="round" stroke-width="2" x1="266.34723517356235" x2="268.89250816441904" y1="265.4700830411161" y2="267.5558675703527"/>
<line stroke="hsl(200, 100%, 49%" stroke-linecap="round" stroke-width="2" x1="268.89250816441904" x2="270.5203530348949" y1="267.5558675703527" y2="269.0295321451353"/>
<line stroke="hsl(200, 100%, 50%" stroke-linecap="round" stroke-width="2" x1="270.5203530348949" x2="270.7129204754303" y1="269.0295321451353" y2="269.2059083188664"/>
<line stroke="hsl(200, 100%, 50%" stroke-linecap="round" stroke-width="2" x1="270.7129204754303" x2="270.71892781630334" y1="269.2059083188664" y2="269.211412563712"/>
<line stroke="hsl(200, 100%, 50%" stroke-linecap="round" stroke-width="2" x1="270.71892781630334" x2="270.72042900253786" y1="269.211412563712" y2="269.2127881557681"/>
</svg>