<svg height="300" width="300" x="0" xmlns="http://www.w3.org/2000/svg" y="0">
<rect fill="white" height="300" width="300" x="0" y="0"/>
<line stroke="hsl(200, 100%, 100%" stroke-linecap="round" stroke-width="2" x1="90" x2="88.895454" y1="30" y2="30.276136"/>
<line stroke="hsl(200, 100%, 99%" stroke-linecap="round" stroke-width="2" x1="88.895454" x2="86.06079" y1="30.276136" y2="30.984802"/>
<line stroke="hsl(200, 100%, 98%" stroke-linecap="round" stroke-width="2" x1="86.06079" x2="81.22304" y1="30.984802" y2="32.19424"/>
<line stroke="hsl(200, 100%, 96%" stroke-linecap="round" stroke-width="2" x1="81.22304" x2="74.354996" y1="32.19424" y2="33.91125"/>
<line stroke="hsl(200, 100%, 94%" stroke-linecap="round" stroke-width="2" x1="74.354996" x2="67.24558" y1="33.91125" y2="39.416447"/>
<line stroke="hsl(200, 100%, 92%" stroke-linecap="round" stroke-width="2" x1="67.24558" x2="61.057472" y1="39.416447" y2="50.530468"/>
<line stroke="hsl(200, 100%, 79%" stroke-linecap="round" stroke-width="2" x1="61.057472" x2="56.46694" y1="50.530468" y2="68.005516"/>
<line stroke="hsl(200, 100%, 66%" stroke-linecap="round" stroke-width="2" x1="56.46694" x2="53.78916" y1="68.005516" y2="91.8546"/>
<line stroke="hsl(200, 100%, 58%" stroke-linecap="round" stroke-width="2" x1="53.78916" x2="53.361137" y1="91.8546" y2="118.57917"/>
<line stroke="hsl(200, 100%, 52%" stroke-linecap="round" stroke-width="2" x1="53.361137" x2="55.23288" y1="118.57917" y2="145.72842"/>
<line stroke="hsl(200, 100%, 47%" stroke-linecap="round" stroke-width="2" x1="55.23288" x2="59.267056" y1="145.72842" y2="171.70258"/>
<line stroke="hsl(200, 100%, 43%" stroke-linecap="round" stroke-width="2" x1="59.267056" x2="65.21654" y1="171.70258" y2="195.5643"/>
<line stroke="hsl(200, 100%, 39%" stroke-linecap="round" stroke-width="2" x1="65.21654" x2="72.09178" y1="195.5643" y2="215.21243"/>
<line stroke="hsl(200, 100%, 35%" stroke-linecap="round" stroke-width="2" x1="72.09178" x2="79.191315" y1="215.21243" y2="229.6125"/>
<line stroke="hsl(200, 100%, 32%" stroke-linecap="round" stroke-width="2" x1="79.191315" x2="86.04968" y1="229.6125" y2="238.4889"/>
<line stroke="hsl(200, 100%, 29%" stroke-linecap="round" stroke-width="2" x1="86.04968" x2="92.38674" y1="238.4889" y2="242.07198"/>
<line stroke="hsl(200, 100%, 27%" stroke-linecap="round" stroke-width="2" x1="92.38674" x2="98.06159" y1="242.07198" y2="240.89894"/>
<line stroke="hsl(200, 100%, 28%" stroke-linecap="round" stroke-width="2" x1="98.06159" x2="103.03283" y1="240.89894" y2="235.66382"/>
<line stroke="hsl(200, 100%, 29%" stroke-linecap="round" stroke-width="2" x1="103.03283" x2="107.32575" y1="235.66382" y2="227.10991"/>
<line stroke="hsl(200, 100%, 30%" stroke-linecap="round" stroke-width="2" x1="107.32575" x2="111.00651" y1="227.10991" y2="215.95732"/>
<line stroke="hsl(200, 100%, 31%" stroke-linecap="round" stroke-width="2" x1="111.00651" x2="115.12898" y1="215.95732" y2="201.75371"/>
<line stroke="hsl(200, 100%, 34%" stroke-linecap="round" stroke-width="2" x1="115.12898" x2="120.335144" y1="201.75371" y2="184.43427"/>
<line stroke="hsl(200, 100%, 37%" stroke-linecap="round" stroke-width="2" x1="120.335144" x2="126.95605" y1="184.43427" y2="164.18694"/>
<line stroke="hsl(200, 100%, 41%" stroke-linecap="round" stroke-width="2" x1="126.95605" x2="135.09938" y1="164.18694" y2="141.34761"/>
<line stroke="hsl(200, 100%, 46%" stroke-linecap="round" stroke-width="2" x1="135.09938" x2="144.16971" y1="141.34761" y2="119.35962"/>
<line stroke="hsl(200, 100%, 51%" stroke-linecap="round" stroke-width="2" x1="144.16971" x2="153.71768" y1="119.35962" y2="100.364"/>
<line stroke="hsl(200, 100%, 56%" stroke-linecap="round" stroke-width="2" x1="153.71768" x2="163.42053" y1="100.364" y2="85.51068"/>
<line stroke="hsl(200, 100%, 61%" stroke-linecap="round" stroke-width="2" x1="163.42053" x2="173.0603" y1="85.51068" y2="75.23059"/>
<line stroke="hsl(200, 100%, 72%" stroke-linecap="round" stroke-width="2" x1="173.0603" x2="182.50214" y1="75.23059" y2="69.46276"/>
<line stroke="hsl(200, 100%, 83%" stroke-linecap="round" stroke-width="2" x1="182.50214" x2="191.6743" y1="69.46276" y2="67.835915"/>
<line stroke="hsl(200, 100%, 83%" stroke-linecap="round" stroke-width="2" x1="191.6743" x2="200.55074" y1="67.835915" y2="69.807495"/>
<line stroke="hsl(200, 100%, 83%" stroke-linecap="round" stroke-width="2" x1="200.55074" x2="209.13655" y1="69.807495" y2="74.7653"/>
<line stroke="hsl(200, 100%, 83%" stroke-linecap="round" stroke-width="2" x1="209.13655" x2="216.35187" y1="74.7653" y2="81.82149"/>
<line stroke="hsl(200, 100%, 83%" stroke-linecap="round" stroke-width="2" x1="216.35187" x2="221.60649" y1="81.82149" y2="90.25332"/>
<line stroke="hsl(200, 100%, 83%" stroke-linecap="round" stroke-width="2" x1="221.60649" x2="224.66707" y1="90.25332" y2="99.49695"/>
<line stroke="hsl(200, 100%, 83%" stroke-linecap="round" stroke-width="2" x1="224.66707" x2="225.5458" y1="99.49695" y2="109.13173"/>
<line stroke="hsl(200, 100%, 66%" stroke-linecap="round" stroke-width="2" x1="225.5458" x2="223.85892" y1="109.13173" y2="119.41193"/>
<line stroke="hsl(200, 100%, 47%" stroke-linecap="round" stroke-width="2" x1="223.85892" x2="219.5497" y1="119.41193" y2="130.45274"/>
<line stroke="hsl(200, 100%, 36%" stroke-linecap="round" stroke-width="2" x1="219.5497" x2="212.77495" y1="130.45274" y2="142.27188"/>
<line stroke="hsl(200, 100%, 30%" stroke-linecap="round" stroke-width="2" x1="212.77495" x2="203.81659" y1="142.27188" y2="154.82338"/>
<line stroke="hsl(200, 100%, 28%" stroke-linecap="round" stroke-width="2" x1="203.81659" x2="195.22493" y1="154.82338" y2="167.47162"/>
<line stroke="hsl(200, 100%, 29%" stroke-linecap="round" stroke-width="2" x1="195.22493" x2="188.60516" y1="167.47162" y2="179.80267"/>
<line stroke="hsl(200, 100%, 29%" stroke-linecap="round" stroke-width="2" x1="188.60516" x2="184.8394" y1="179.80267" y2="191.57498"/>
<line stroke="hsl(200, 100%, 30%" stroke-linecap="round" stroke-width="2" x1="184.8394" x2="184.28204" y1="191.57498" y2="202.67511"/>
<line stroke="hsl(200, 100%, 31%" stroke-linecap="round" stroke-width="2" x1="184.28204" x2="186.64752" y1="202.67511" y2="212.52766"/>
<line stroke="hsl(200, 100%, 31%" stroke-linecap="round" stroke-width="2" x1="186.64752" x2="191.53784" y1="212.52766" y2="220.85626"/>
<line stroke="hsl(200, 100%, 31%" stroke-linecap="round" stroke-width="2" x1="191.53784" x2="198.51236" y1="220.85626" y2="227.59624"/>
<line stroke="hsl(200, 100%, 31%" stroke-linecap="round" stroke-width="2" x1="198.51236" x2="207.13559" y1="227.59624" y2="232.8232"/>
<line stroke="hsl(200, 100%, 32%" stroke-linecap="round" stroke-width="2" x1="207.13559" x2="216.45515" y1="232.8232" y2="237.24919"/>
<line stroke="hsl(200, 100%, 32%" stroke-linecap="round" stroke-width="2" x1="216.45515" x2="225.81026" y1="237.24919" y2="241.38893"/>
<line stroke="hsl(200, 100%, 33%" stroke-linecap="round" stroke-width="2" x1="225.81026" x2="234.77536" y1="241.38893" y2="245.59291"/>
<line stroke="hsl(200, 100%, 34%" stroke-linecap="round" stroke-width="2" x1="234.77536" x2="243.10684" y1="245.59291" y2="250.0807"/>
<line stroke="hsl(200, 100%, 37%" stroke-linecap="round" stroke-width="2" x1="243.10684" x2="251.10599" y1="250.0807" y2="254.8834"/>
<line stroke="hsl(200, 100%, 41%" stroke-linecap="round" stroke-width="2" x1="251.10599" x2="257.6231" y1="254.8834" y2="259.13928"/>
<line stroke="hsl(200, 100%, 43%" stroke-linecap="round" stroke-width="2" x1="257.6231" x2="262.65857" y1="259.13928" y2="262.68015"/>
<line stroke="hsl(200, 100%, 46%" stroke-linecap="round" stroke-width="2" x1="262.65857" x2="266.34723" y1="262.68015" y2="265.4701"/>
<line stroke="hsl(200, 100%, 48%" stroke-linecap="round" stroke-width="2" x1="266.34723" x2="268.89252" y1="265.4701" y2="267.55588"/>
<line stroke="hsl(200, 100%, 49%" stroke-linecap="round" stroke-width="2" x1="268.89252" x2="270.52036" y1="267.55588" y2="269.02954"/>
<line stroke="hsl(200, 100%, 50%" stroke-linecap="round" stroke-width="2" x1="270.52036" x2="270.71292" y1="269.02954" y2="269.2059"/>
<line stroke="hsl(200, 100%, 50%" stroke-linecap="round" stroke-width="2" x1="270.71292" x2="270.71893" y1="269.2059" y2="269.2114"/>
<line stroke="hsl(200, 100%, 50%" stroke-linecap="round" stroke-width="2" x1="270.71893" x2="270.72043" y1="269.2114" y2="269.21277"/>
</svg>