<svg height="4" width="6" x="0" xmlns="http://www.w3.org/2000/svg" y="0">
<rect fill="white" height="4" width="6" x="0" y="0"/>
<line stroke="black" stroke-width="0.01" x1="1" x2="1.0036818" y1="1" y2="1.0184091"/>
<line stroke="black" stroke-width="0.01" x1="1.0036818" x2="1.0131307" y1="1.0184091" y2="1.0656536"/>
<line stroke="black" stroke-width="0.01" x1="1.0131307" x2="1.0292565" y1="1.0656536" y2="1.1462828"/>
<line stroke="black" stroke-width="0.01" x1="1.0292565" x2="1.0521499" y1="1.1462828" y2="1.26075"/>
<line stroke="black" stroke-width="0.01" x1="1.0521499" x2="1.0813707" y1="1.26075" y2="1.3939675"/>
<line stroke="black" stroke-width="0.01" x1="1.0813707" x2="1.1161711" y1="1.3939675" y2="1.5348982"/>
<line stroke="black" stroke-width="0.01" x1="1.1161711" x2="1.1556617" y1="1.5348982" y2="1.6759104"/>
<line stroke="black" stroke-width="0.01" x1="1.1556617" x2="1.1989279" y1="1.6759104" y2="1.8121139"/>
<line stroke="black" stroke-width="0.01" x1="1.1989279" x2="1.2800835" y1="1.8121139" y2="1.9296875"/>
<line stroke="black" stroke-width="0.01" x1="1.2800835" x2="1.4181715" y1="1.9296875" y2="2.0211577"/>
<line stroke="black" stroke-width="0.01" x1="1.4181715" x2="1.621187" y1="2.0211577" y2="2.0836635"/>
<line stroke="black" stroke-width="0.01" x1="1.621187" x2="1.8894658" y1="2.0836635" y2="2.1175065"/>
<line stroke="black" stroke-width="0.01" x1="1.8894658" x2="2.2123148" y1="2.1175065" y2="2.1336126"/>
<line stroke="black" stroke-width="0.01" x1="2.2123148" x2="2.5291831" y1="2.1336126" y2="2.139651"/>
<line stroke="black" stroke-width="0.01" x1="2.5291831" x2="2.8186345" y1="2.139651" y2="2.14303"/>
<line stroke="black" stroke-width="0.01" x1="2.8186345" x2="3.070054" y1="2.14303" y2="2.1484811"/>
<line stroke="black" stroke-width="0.01" x1="3.070054" x2="3.2803288" y1="2.1484811" y2="2.1586962"/>
<line stroke="black" stroke-width="0.01" x1="3.2803288" x2="3.4511733" y1="2.1586962" y2="2.1748924"/>
<line stroke="black" stroke-width="0.01" x1="3.4511733" x2="3.5870848" y1="2.1748924" y2="2.197285"/>
<line stroke="black" stroke-width="0.01" x1="3.5870848" x2="3.6938553" y1="2.197285" y2="2.2254612"/>
<line stroke="black" stroke-width="0.01" x1="3.6938553" x2="3.777556" y1="2.2254612" y2="2.2586641"/>
<line stroke="black" stroke-width="0.01" x1="3.777556" x2="3.8438952" y1="2.2586641" y2="2.295993"/>
<line stroke="black" stroke-width="0.01" x1="3.8438952" x2="3.8978612" y1="2.295993" y2="2.3365397"/>
<line stroke="black" stroke-width="0.01" x1="3.8978612" x2="3.9738607" y1="2.3365397" y2="2.3907728"/>
<line stroke="black" stroke-width="0.01" x1="3.9738607" x2="4.0980616" y1="2.3907728" y2="2.4703434"/>
<line stroke="black" stroke-width="0.01" x1="4.0980616" x2="4.2181926" y1="2.4703434" y2="2.5639522"/>
<line stroke="black" stroke-width="0.01" x1="4.2181926" x2="4.315828" y1="2.5639522" y2="2.6559708"/>
<line stroke="black" stroke-width="0.01" x1="4.315828" x2="4.3976607" y1="2.6559708" y2="2.748592"/>
<line stroke="black" stroke-width="0.01" x1="4.3976607" x2="4.456064" y1="2.748592" y2="2.82702"/>
<line stroke="black" stroke-width="0.01" x1="4.456064" x2="4.4951005" y1="2.82702" y2="2.8898022"/>
<line stroke="black" stroke-width="0.01" x1="4.4951005" x2="4.5189676" y1="2.8898022" y2="2.9374895"/>
<line stroke="black" stroke-width="0.01" x1="4.5189676" x2="4.5315638" y1="2.9374895" y2="2.9717846"/>
<line stroke="black" stroke-width="0.01" x1="4.5315638" x2="4.535885" y1="2.9717846" y2="2.9861438"/>
<line stroke="black" stroke-width="0.01" x1="4.535885" x2="4.536399" y1="2.9861438" y2="2.9878988"/>
</svg>